solid 111
   facet normal 1.000000e+00 0.000000e+00 0.000000e+00
      outer loop
         vertex 1.000000e+03 9.000000e+02 9.000000e+02
         vertex 1.000000e+03 9.999999e+01 9.000000e+02
         vertex 1.000000e+03 9.000000e+02 1.000000e+02
      endloop
   endfacet
   facet normal 1.000000e+00 0.000000e+00 0.000000e+00
      outer loop
         vertex 1.000000e+03 9.000000e+02 1.000000e+02
         vertex 1.000000e+03 9.999999e+01 9.000000e+02
         vertex 1.000000e+03 9.999999e+01 1.000000e+02
      endloop
   endfacet
   facet normal 0.000000e+00 1.000000e+00 -0.000000e+00
      outer loop
         vertex 9.000000e+02 1.000000e+03 1.000000e+02
         vertex 9.999999e+01 1.000000e+03 1.000000e+02
         vertex 9.000000e+02 1.000000e+03 9.000000e+02
      endloop
   endfacet
   facet normal 0.000000e+00 1.000000e+00 0.000000e+00
      outer loop
         vertex 9.000000e+02 1.000000e+03 9.000000e+02
         vertex 9.999999e+01 1.000000e+03 1.000000e+02
         vertex 9.999999e+01 1.000000e+03 9.000000e+02
      endloop
   endfacet
   facet normal -1.000000e+00 -0.000000e+00 -0.000000e+00
      outer loop
         vertex 0.000000e+00 9.000000e+02 9.000000e+02
         vertex 0.000000e+00 9.000000e+02 1.000000e+02
         vertex 0.000000e+00 9.999999e+01 9.000000e+02
      endloop
   endfacet
   facet normal -1.000000e+00 0.000000e+00 0.000000e+00
      outer loop
         vertex 0.000000e+00 9.999999e+01 9.000000e+02
         vertex 0.000000e+00 9.000000e+02 1.000000e+02
         vertex 0.000000e+00 9.999999e+01 1.000000e+02
      endloop
   endfacet
   facet normal 0.000000e+00 -1.000000e+00 0.000000e+00
      outer loop
         vertex 9.999999e+01 0.000000e+00 1.000000e+02
         vertex 9.000000e+02 0.000000e+00 1.000000e+02
         vertex 9.999999e+01 0.000000e+00 9.000000e+02
      endloop
   endfacet
   facet normal 0.000000e+00 -1.000000e+00 0.000000e+00
      outer loop
         vertex 9.999999e+01 0.000000e+00 9.000000e+02
         vertex 9.000000e+02 0.000000e+00 1.000000e+02
         vertex 9.000000e+02 0.000000e+00 9.000000e+02
      endloop
   endfacet
   facet normal -0.000000e+00 0.000000e+00 1.000000e+00
      outer loop
         vertex 9.999999e+01 9.000000e+02 1.000000e+03
         vertex 9.999999e+01 9.999999e+01 1.000000e+03
         vertex 9.000000e+02 9.000000e+02 1.000000e+03
      endloop
   endfacet
   facet normal 0.000000e+00 0.000000e+00 1.000000e+00
      outer loop
         vertex 9.000000e+02 9.000000e+02 1.000000e+03
         vertex 9.999999e+01 9.999999e+01 1.000000e+03
         vertex 9.000000e+02 9.999999e+01 1.000000e+03
      endloop
   endfacet
   facet normal 0.000000e+00 0.000000e+00 -1.000000e+00
      outer loop
         vertex 9.000000e+02 9.999999e+01 0.000000e+00
         vertex 9.999999e+01 9.999999e+01 0.000000e+00
         vertex 9.000000e+02 9.000000e+02 0.000000e+00
      endloop
   endfacet
   facet normal -0.000000e+00 0.000000e+00 -1.000000e+00
      outer loop
         vertex 9.000000e+02 9.000000e+02 0.000000e+00
         vertex 9.999999e+01 9.999999e+01 0.000000e+00
         vertex 9.999999e+01 9.000000e+02 0.000000e+00
      endloop
   endfacet
   facet normal -7.071068e-01 -0.000000e+00 -7.071068e-01
      outer loop
         vertex 0.000000e+00 9.000000e+02 1.000000e+02
         vertex 9.999999e+01 9.000000e+02 1.387779e-14
         vertex 0.000000e+00 9.999999e+01 1.000000e+02
      endloop
   endfacet
   facet normal -7.071068e-01 0.000000e+00 -7.071068e-01
      outer loop
         vertex 0.000000e+00 9.999999e+01 1.000000e+02
         vertex 9.999999e+01 9.000000e+02 1.387779e-14
         vertex 9.999999e+01 9.999999e+01 1.387779e-14
      endloop
   endfacet
   facet normal -5.773503e-01 -5.773503e-01 -5.773502e-01
      outer loop
         vertex 0.000000e+00 9.999999e+01 1.000000e+02
         vertex 9.999999e+01 9.999999e+01 -1.104500e-14
         vertex 9.999999e+01 0.000000e+00 1.000000e+02
      endloop
   endfacet
   facet normal -5.773503e-01 5.773503e-01 -5.773502e-01
      outer loop
         vertex 9.999999e+01 9.000000e+02 2.775558e-14
         vertex 0.000000e+00 9.000000e+02 1.000000e+02
         vertex 9.999999e+01 1.000000e+03 1.000000e+02
      endloop
   endfacet
   facet normal -0.000000e+00 -7.071068e-01 -7.071068e-01
      outer loop
         vertex 9.000000e+02 9.999999e+01 1.387779e-14
         vertex 9.000000e+02 0.000000e+00 1.000000e+02
         vertex 9.999999e+01 9.999999e+01 1.387779e-14
      endloop
   endfacet
   facet normal 0.000000e+00 -7.071068e-01 -7.071068e-01
      outer loop
         vertex 9.999999e+01 9.999999e+01 1.387779e-14
         vertex 9.000000e+02 0.000000e+00 1.000000e+02
         vertex 9.999999e+01 0.000000e+00 1.000000e+02
      endloop
   endfacet
   facet normal -7.071068e-01 -7.071068e-01 -0.000000e+00
      outer loop
         vertex 9.999999e+01 0.000000e+00 9.000000e+02
         vertex 0.000000e+00 9.999999e+01 9.000000e+02
         vertex 9.999999e+01 0.000000e+00 1.000000e+02
      endloop
   endfacet
   facet normal -7.071068e-01 -7.071068e-01 0.000000e+00
      outer loop
         vertex 9.999999e+01 0.000000e+00 1.000000e+02
         vertex 0.000000e+00 9.999999e+01 9.000000e+02
         vertex 0.000000e+00 9.999999e+01 1.000000e+02
      endloop
   endfacet
   facet normal -7.071069e-01 0.000000e+00 7.071067e-01
      outer loop
         vertex 0.000000e+00 9.999999e+01 9.000000e+02
         vertex 9.999999e+01 9.999999e+01 1.000000e+03
         vertex 0.000000e+00 9.000000e+02 9.000000e+02
      endloop
   endfacet
   facet normal -7.071069e-01 0.000000e+00 7.071067e-01
      outer loop
         vertex 0.000000e+00 9.000000e+02 9.000000e+02
         vertex 9.999999e+01 9.999999e+01 1.000000e+03
         vertex 9.999999e+01 9.000000e+02 1.000000e+03
      endloop
   endfacet
   facet normal -7.071068e-01 7.071068e-01 0.000000e+00
      outer loop
         vertex 0.000000e+00 9.000000e+02 9.000000e+02
         vertex 9.999999e+01 1.000000e+03 9.000000e+02
         vertex 0.000000e+00 9.000000e+02 1.000000e+02
      endloop
   endfacet
   facet normal -7.071068e-01 7.071068e-01 0.000000e+00
      outer loop
         vertex 0.000000e+00 9.000000e+02 1.000000e+02
         vertex 9.999999e+01 1.000000e+03 9.000000e+02
         vertex 9.999999e+01 1.000000e+03 1.000000e+02
      endloop
   endfacet
   facet normal 0.000000e+00 7.071068e-01 -7.071068e-01
      outer loop
         vertex 9.000000e+02 1.000000e+03 1.000000e+02
         vertex 9.000000e+02 9.000000e+02 1.387779e-14
         vertex 9.999999e+01 1.000000e+03 1.000000e+02
      endloop
   endfacet
   facet normal 0.000000e+00 7.071068e-01 -7.071068e-01
      outer loop
         vertex 9.999999e+01 1.000000e+03 1.000000e+02
         vertex 9.000000e+02 9.000000e+02 1.387779e-14
         vertex 9.999999e+01 9.000000e+02 1.387779e-14
      endloop
   endfacet
   facet normal 7.071068e-01 0.000000e+00 -7.071068e-01
      outer loop
         vertex 9.000000e+02 9.000000e+02 1.387779e-14
         vertex 1.000000e+03 9.000000e+02 1.000000e+02
         vertex 9.000000e+02 9.999999e+01 1.387779e-14
      endloop
   endfacet
   facet normal 7.071068e-01 0.000000e+00 -7.071068e-01
      outer loop
         vertex 9.000000e+02 9.999999e+01 1.387779e-14
         vertex 1.000000e+03 9.000000e+02 1.000000e+02
         vertex 1.000000e+03 9.999999e+01 1.000000e+02
      endloop
   endfacet
   facet normal 5.773503e-01 -5.773503e-01 -5.773502e-01
      outer loop
         vertex 9.000000e+02 9.999999e+01 0.000000e+00
         vertex 1.000000e+03 9.999999e+01 1.000000e+02
         vertex 9.000000e+02 0.000000e+00 1.000000e+02
      endloop
   endfacet
   facet normal -5.773503e-01 -5.773503e-01 5.773502e-01
      outer loop
         vertex 0.000000e+00 9.999999e+01 9.000000e+02
         vertex 9.999999e+01 0.000000e+00 9.000000e+02
         vertex 9.999999e+01 9.999999e+01 1.000000e+03
      endloop
   endfacet
   facet normal -5.773503e-01 5.773503e-01 5.773502e-01
      outer loop
         vertex 0.000000e+00 9.000000e+02 9.000000e+02
         vertex 9.999999e+01 9.000000e+02 1.000000e+03
         vertex 9.999999e+01 1.000000e+03 9.000000e+02
      endloop
   endfacet
   facet normal 5.773503e-01 5.773503e-01 -5.773502e-01
      outer loop
         vertex 9.000000e+02 9.000000e+02 -1.104500e-14
         vertex 9.000000e+02 1.000000e+03 1.000000e+02
         vertex 1.000000e+03 9.000000e+02 1.000000e+02
      endloop
   endfacet
   facet normal 7.071068e-01 -7.071068e-01 0.000000e+00
      outer loop
         vertex 1.000000e+03 9.999999e+01 9.000000e+02
         vertex 9.000000e+02 0.000000e+00 9.000000e+02
         vertex 1.000000e+03 9.999999e+01 1.000000e+02
      endloop
   endfacet
   facet normal 7.071068e-01 -7.071068e-01 0.000000e+00
      outer loop
         vertex 1.000000e+03 9.999999e+01 1.000000e+02
         vertex 9.000000e+02 0.000000e+00 9.000000e+02
         vertex 9.000000e+02 0.000000e+00 1.000000e+02
      endloop
   endfacet
   facet normal 0.000000e+00 -7.071069e-01 7.071067e-01
      outer loop
         vertex 9.000000e+02 0.000000e+00 9.000000e+02
         vertex 9.000000e+02 9.999999e+01 1.000000e+03
         vertex 9.999999e+01 0.000000e+00 9.000000e+02
      endloop
   endfacet
   facet normal 0.000000e+00 -7.071069e-01 7.071067e-01
      outer loop
         vertex 9.999999e+01 0.000000e+00 9.000000e+02
         vertex 9.000000e+02 9.999999e+01 1.000000e+03
         vertex 9.999999e+01 9.999999e+01 1.000000e+03
      endloop
   endfacet
   facet normal 0.000000e+00 7.071069e-01 7.071067e-01
      outer loop
         vertex 9.000000e+02 9.000000e+02 1.000000e+03
         vertex 9.000000e+02 1.000000e+03 9.000000e+02
         vertex 9.999999e+01 9.000000e+02 1.000000e+03
      endloop
   endfacet
   facet normal 0.000000e+00 7.071069e-01 7.071067e-01
      outer loop
         vertex 9.999999e+01 9.000000e+02 1.000000e+03
         vertex 9.000000e+02 1.000000e+03 9.000000e+02
         vertex 9.999999e+01 1.000000e+03 9.000000e+02
      endloop
   endfacet
   facet normal 7.071068e-01 7.071068e-01 0.000000e+00
      outer loop
         vertex 9.000000e+02 1.000000e+03 9.000000e+02
         vertex 1.000000e+03 9.000000e+02 9.000000e+02
         vertex 9.000000e+02 1.000000e+03 1.000000e+02
      endloop
   endfacet
   facet normal 7.071068e-01 7.071068e-01 0.000000e+00
      outer loop
         vertex 9.000000e+02 1.000000e+03 1.000000e+02
         vertex 1.000000e+03 9.000000e+02 9.000000e+02
         vertex 1.000000e+03 9.000000e+02 1.000000e+02
      endloop
   endfacet
   facet normal 5.773503e-01 -5.773503e-01 5.773502e-01
      outer loop
         vertex 9.000000e+02 0.000000e+00 9.000000e+02
         vertex 1.000000e+03 9.999999e+01 9.000000e+02
         vertex 9.000000e+02 9.999999e+01 1.000000e+03
      endloop
   endfacet
   facet normal 5.773503e-01 5.773503e-01 5.773502e-01
      outer loop
         vertex 9.000000e+02 1.000000e+03 9.000000e+02
         vertex 9.000000e+02 9.000000e+02 1.000000e+03
         vertex 1.000000e+03 9.000000e+02 9.000000e+02
      endloop
   endfacet
   facet normal 7.071069e-01 0.000000e+00 7.071067e-01
      outer loop
         vertex 1.000000e+03 9.000000e+02 9.000000e+02
         vertex 9.000000e+02 9.000000e+02 1.000000e+03
         vertex 1.000000e+03 9.999999e+01 9.000000e+02
      endloop
   endfacet
   facet normal 7.071069e-01 0.000000e+00 7.071067e-01
      outer loop
         vertex 1.000000e+03 9.999999e+01 9.000000e+02
         vertex 9.000000e+02 9.000000e+02 1.000000e+03
         vertex 9.000000e+02 9.999999e+01 1.000000e+03
      endloop
   endfacet
endsolid