solid 110.5
   facet normal 1.000000e+00 0.000000e+00 0.000000e+00
      outer loop
         vertex 1.000000e+03 9.999999e+01 9.999999e+01
         vertex 1.000000e+03 9.000000e+02 9.999999e+01
         vertex 1.000000e+03 9.999999e+01 4.000000e+02
      endloop
   endfacet
   facet normal 1.000000e+00 -0.000000e+00 0.000000e+00
      outer loop
         vertex 1.000000e+03 9.999999e+01 4.000000e+02
         vertex 1.000000e+03 9.000000e+02 9.999999e+01
         vertex 1.000000e+03 9.000000e+02 4.000000e+02
      endloop
   endfacet
   facet normal 0.000000e+00 1.000000e+00 -0.000000e+00
      outer loop
         vertex 9.000000e+02 1.000000e+03 9.999999e+01
         vertex 9.999999e+01 1.000000e+03 9.999999e+01
         vertex 9.000000e+02 1.000000e+03 4.000000e+02
      endloop
   endfacet
   facet normal 0.000000e+00 1.000000e+00 0.000000e+00
      outer loop
         vertex 9.000000e+02 1.000000e+03 4.000000e+02
         vertex 9.999999e+01 1.000000e+03 9.999999e+01
         vertex 9.999999e+01 1.000000e+03 4.000000e+02
      endloop
   endfacet
   facet normal -1.000000e+00 0.000000e+00 0.000000e+00
      outer loop
         vertex 0.000000e+00 9.999999e+01 4.000000e+02
         vertex 0.000000e+00 9.000000e+02 4.000000e+02
         vertex 0.000000e+00 9.999999e+01 9.999999e+01
      endloop
   endfacet
   facet normal -1.000000e+00 0.000000e+00 0.000000e+00
      outer loop
         vertex 0.000000e+00 9.999999e+01 9.999999e+01
         vertex 0.000000e+00 9.000000e+02 4.000000e+02
         vertex 0.000000e+00 9.000000e+02 9.999999e+01
      endloop
   endfacet
   facet normal 0.000000e+00 -1.000000e+00 0.000000e+00
      outer loop
         vertex 9.999999e+01 0.000000e+00 9.999999e+01
         vertex 9.000000e+02 0.000000e+00 9.999999e+01
         vertex 9.999999e+01 0.000000e+00 4.000000e+02
      endloop
   endfacet
   facet normal 0.000000e+00 -1.000000e+00 0.000000e+00
      outer loop
         vertex 9.999999e+01 0.000000e+00 4.000000e+02
         vertex 9.000000e+02 0.000000e+00 9.999999e+01
         vertex 9.000000e+02 0.000000e+00 4.000000e+02
      endloop
   endfacet
   facet normal 0.000000e+00 0.000000e+00 1.000000e+00
      outer loop
         vertex 9.000000e+02 9.000000e+02 5.000000e+02
         vertex 9.999999e+01 9.000000e+02 5.000000e+02
         vertex 9.000000e+02 9.999999e+01 5.000000e+02
      endloop
   endfacet
   facet normal 0.000000e+00 0.000000e+00 1.000000e+00
      outer loop
         vertex 9.000000e+02 9.999999e+01 5.000000e+02
         vertex 9.999999e+01 9.000000e+02 5.000000e+02
         vertex 9.999999e+01 9.999999e+01 5.000000e+02
      endloop
   endfacet
   facet normal -0.000000e+00 -0.000000e+00 -1.000000e+00
      outer loop
         vertex 9.000000e+02 9.000000e+02 0.000000e+00
         vertex 9.000000e+02 9.999999e+01 0.000000e+00
         vertex 9.999999e+01 9.000000e+02 0.000000e+00
      endloop
   endfacet
   facet normal 0.000000e+00 0.000000e+00 -1.000000e+00
      outer loop
         vertex 9.999999e+01 9.000000e+02 0.000000e+00
         vertex 9.000000e+02 9.999999e+01 0.000000e+00
         vertex 9.999999e+01 9.999999e+01 0.000000e+00
      endloop
   endfacet
   facet normal 0.000000e+00 -7.071068e-01 7.071068e-01
      outer loop
         vertex 9.999999e+01 9.999999e+01 5.000000e+02
         vertex 9.999999e+01 0.000000e+00 4.000000e+02
         vertex 9.000000e+02 9.999999e+01 5.000000e+02
      endloop
   endfacet
   facet normal 0.000000e+00 -7.071068e-01 7.071068e-01
      outer loop
         vertex 9.000000e+02 9.999999e+01 5.000000e+02
         vertex 9.999999e+01 0.000000e+00 4.000000e+02
         vertex 9.000000e+02 0.000000e+00 4.000000e+02
      endloop
   endfacet
   facet normal 5.773503e-01 -5.773503e-01 5.773503e-01
      outer loop
         vertex 9.000000e+02 9.999999e+01 5.000000e+02
         vertex 9.000000e+02 0.000000e+00 4.000000e+02
         vertex 1.000000e+03 9.999999e+01 4.000000e+02
      endloop
   endfacet
   facet normal -5.773503e-01 -5.773503e-01 5.773503e-01
      outer loop
         vertex 9.999999e+01 0.000000e+00 4.000000e+02
         vertex 9.999999e+01 9.999999e+01 5.000000e+02
         vertex 0.000000e+00 9.999999e+01 4.000000e+02
      endloop
   endfacet
   facet normal 7.071068e-01 -7.071068e-01 0.000000e+00
      outer loop
         vertex 9.000000e+02 0.000000e+00 9.999999e+01
         vertex 1.000000e+03 9.999999e+01 9.999999e+01
         vertex 9.000000e+02 0.000000e+00 4.000000e+02
      endloop
   endfacet
   facet normal 7.071068e-01 -7.071068e-01 0.000000e+00
      outer loop
         vertex 9.000000e+02 0.000000e+00 4.000000e+02
         vertex 1.000000e+03 9.999999e+01 9.999999e+01
         vertex 1.000000e+03 9.999999e+01 4.000000e+02
      endloop
   endfacet
   facet normal 7.071068e-01 0.000000e+00 7.071068e-01
      outer loop
         vertex 1.000000e+03 9.000000e+02 4.000000e+02
         vertex 9.000000e+02 9.000000e+02 5.000000e+02
         vertex 1.000000e+03 9.999999e+01 4.000000e+02
      endloop
   endfacet
   facet normal 7.071068e-01 0.000000e+00 7.071068e-01
      outer loop
         vertex 1.000000e+03 9.999999e+01 4.000000e+02
         vertex 9.000000e+02 9.000000e+02 5.000000e+02
         vertex 9.000000e+02 9.999999e+01 5.000000e+02
      endloop
   endfacet
   facet normal 0.000000e+00 7.071068e-01 7.071068e-01
      outer loop
         vertex 9.000000e+02 9.000000e+02 5.000000e+02
         vertex 9.000000e+02 1.000000e+03 4.000000e+02
         vertex 9.999999e+01 9.000000e+02 5.000000e+02
      endloop
   endfacet
   facet normal 0.000000e+00 7.071068e-01 7.071068e-01
      outer loop
         vertex 9.999999e+01 9.000000e+02 5.000000e+02
         vertex 9.000000e+02 1.000000e+03 4.000000e+02
         vertex 9.999999e+01 1.000000e+03 4.000000e+02
      endloop
   endfacet
   facet normal -7.071068e-01 0.000000e+00 7.071068e-01
      outer loop
         vertex 9.999999e+01 9.000000e+02 5.000000e+02
         vertex 0.000000e+00 9.000000e+02 4.000000e+02
         vertex 9.999999e+01 9.999999e+01 5.000000e+02
      endloop
   endfacet
   facet normal -7.071068e-01 0.000000e+00 7.071068e-01
      outer loop
         vertex 9.999999e+01 9.999999e+01 5.000000e+02
         vertex 0.000000e+00 9.000000e+02 4.000000e+02
         vertex 0.000000e+00 9.999999e+01 4.000000e+02
      endloop
   endfacet
   facet normal -7.071068e-01 -7.071068e-01 0.000000e+00
      outer loop
         vertex 0.000000e+00 9.999999e+01 9.999999e+01
         vertex 9.999999e+01 0.000000e+00 9.999999e+01
         vertex 0.000000e+00 9.999999e+01 4.000000e+02
      endloop
   endfacet
   facet normal -7.071068e-01 -7.071068e-01 0.000000e+00
      outer loop
         vertex 0.000000e+00 9.999999e+01 4.000000e+02
         vertex 9.999999e+01 0.000000e+00 9.999999e+01
         vertex 9.999999e+01 0.000000e+00 4.000000e+02
      endloop
   endfacet
   facet normal 0.000000e+00 -7.071068e-01 -7.071068e-01
      outer loop
         vertex 9.999999e+01 0.000000e+00 9.999999e+01
         vertex 9.999999e+01 9.999999e+01 0.000000e+00
         vertex 9.000000e+02 0.000000e+00 9.999999e+01
      endloop
   endfacet
   facet normal 0.000000e+00 -7.071068e-01 -7.071068e-01
      outer loop
         vertex 9.000000e+02 0.000000e+00 9.999999e+01
         vertex 9.999999e+01 9.999999e+01 0.000000e+00
         vertex 9.000000e+02 9.999999e+01 0.000000e+00
      endloop
   endfacet
   facet normal 5.773503e-01 -5.773503e-01 -5.773503e-01
      outer loop
         vertex 9.000000e+02 0.000000e+00 9.999999e+01
         vertex 9.000000e+02 9.999999e+01 0.000000e+00
         vertex 1.000000e+03 9.999999e+01 9.999999e+01
      endloop
   endfacet
   facet normal 5.773503e-01 5.773503e-01 5.773503e-01
      outer loop
         vertex 9.000000e+02 9.000000e+02 5.000000e+02
         vertex 1.000000e+03 9.000000e+02 4.000000e+02
         vertex 9.000000e+02 1.000000e+03 4.000000e+02
      endloop
   endfacet
   facet normal -5.773503e-01 5.773503e-01 5.773503e-01
      outer loop
         vertex 9.999999e+01 9.000000e+02 5.000000e+02
         vertex 9.999999e+01 1.000000e+03 4.000000e+02
         vertex 0.000000e+00 9.000000e+02 4.000000e+02
      endloop
   endfacet
   facet normal -5.773503e-01 -5.773503e-01 -5.773503e-01
      outer loop
         vertex 9.999999e+01 0.000000e+00 9.999999e+01
         vertex 0.000000e+00 9.999999e+01 9.999999e+01
         vertex 9.999999e+01 9.999999e+01 0.000000e+00
      endloop
   endfacet
   facet normal 7.071068e-01 0.000000e+00 -7.071068e-01
      outer loop
         vertex 9.000000e+02 9.000000e+02 0.000000e+00
         vertex 1.000000e+03 9.000000e+02 9.999999e+01
         vertex 9.000000e+02 9.999999e+01 0.000000e+00
      endloop
   endfacet
   facet normal 7.071068e-01 0.000000e+00 -7.071068e-01
      outer loop
         vertex 9.000000e+02 9.999999e+01 0.000000e+00
         vertex 1.000000e+03 9.000000e+02 9.999999e+01
         vertex 1.000000e+03 9.999999e+01 9.999999e+01
      endloop
   endfacet
   facet normal 7.071068e-01 7.071068e-01 -0.000000e+00
      outer loop
         vertex 1.000000e+03 9.000000e+02 9.999999e+01
         vertex 9.000000e+02 1.000000e+03 9.999999e+01
         vertex 1.000000e+03 9.000000e+02 4.000000e+02
      endloop
   endfacet
   facet normal 7.071068e-01 7.071068e-01 0.000000e+00
      outer loop
         vertex 1.000000e+03 9.000000e+02 4.000000e+02
         vertex 9.000000e+02 1.000000e+03 9.999999e+01
         vertex 9.000000e+02 1.000000e+03 4.000000e+02
      endloop
   endfacet
   facet normal -7.071068e-01 7.071068e-01 0.000000e+00
      outer loop
         vertex 9.999999e+01 1.000000e+03 9.999999e+01
         vertex 0.000000e+00 9.000000e+02 9.999999e+01
         vertex 9.999999e+01 1.000000e+03 4.000000e+02
      endloop
   endfacet
   facet normal -7.071068e-01 7.071068e-01 0.000000e+00
      outer loop
         vertex 9.999999e+01 1.000000e+03 4.000000e+02
         vertex 0.000000e+00 9.000000e+02 9.999999e+01
         vertex 0.000000e+00 9.000000e+02 4.000000e+02
      endloop
   endfacet
   facet normal -7.071068e-01 -0.000000e+00 -7.071068e-01
      outer loop
         vertex 0.000000e+00 9.000000e+02 9.999999e+01
         vertex 9.999999e+01 9.000000e+02 0.000000e+00
         vertex 0.000000e+00 9.999999e+01 9.999999e+01
      endloop
   endfacet
   facet normal -7.071068e-01 0.000000e+00 -7.071068e-01
      outer loop
         vertex 0.000000e+00 9.999999e+01 9.999999e+01
         vertex 9.999999e+01 9.000000e+02 0.000000e+00
         vertex 9.999999e+01 9.999999e+01 0.000000e+00
      endloop
   endfacet
   facet normal 5.773503e-01 5.773503e-01 -5.773503e-01
      outer loop
         vertex 1.000000e+03 9.000000e+02 9.999999e+01
         vertex 9.000000e+02 9.000000e+02 0.000000e+00
         vertex 9.000000e+02 1.000000e+03 9.999999e+01
      endloop
   endfacet
   facet normal -5.773503e-01 5.773503e-01 -5.773503e-01
      outer loop
         vertex 0.000000e+00 9.000000e+02 9.999999e+01
         vertex 9.999999e+01 1.000000e+03 9.999999e+01
         vertex 9.999999e+01 9.000000e+02 0.000000e+00
      endloop
   endfacet
   facet normal 0.000000e+00 7.071068e-01 -7.071068e-01
      outer loop
         vertex 9.999999e+01 9.000000e+02 0.000000e+00
         vertex 9.999999e+01 1.000000e+03 9.999999e+01
         vertex 9.000000e+02 9.000000e+02 0.000000e+00
      endloop
   endfacet
   facet normal 0.000000e+00 7.071068e-01 -7.071068e-01
      outer loop
         vertex 9.000000e+02 9.000000e+02 0.000000e+00
         vertex 9.999999e+01 1.000000e+03 9.999999e+01
         vertex 9.000000e+02 1.000000e+03 9.999999e+01
      endloop
   endfacet
endsolid